<svg width="22" height="32" viewBox="0 0 22 32" fill="none" xmlns="http://www.w3.org/2000/svg">
<g filter="url(#filter0_d_1_45)">
<path fill-rule="evenodd" clip-rule="evenodd" d="M16 1H6C5.44775 1 5 1.44922 5 2V2.5H17V2C17 1.70312 16.8701 1.4375 16.6641 1.25391C16.4873 1.09375 16.2549 1 16 1ZM4 2.5V3.5V18.5V19.5V22C4 23.1055 4.89551 24 6 24H16C16.6602 24 17.2456 23.6797 17.6099 23.1875C17.855 22.8555 18 22.4453 18 22V19.5V18.5V3.5V3V2C18 0.894531 17.1045 0 16 0H6C5.5498 0 5.13428 0.148438 4.7998 0.398438C4.31396 0.761719 4 1.34375 4 2V2.5ZM5 3.5V18.5H17V3.5H5ZM5 22V19.5H17V22C17 22.5508 16.5522 23 16 23H6C5.69092 23 5.41455 22.8594 5.23145 22.6367C5.08691 22.4648 5 22.2422 5 22ZM12 21C12 21.5508 11.5522 22 11 22C10.4478 22 10 21.5508 10 21C10 20.4492 10.4478 20 11 20C11.5522 20 12 20.4492 12 21Z" fill="#432EAB"/>
</g>
<defs>
<filter id="filter0_d_1_45" x="0" y="0" width="22" height="32" filterUnits="userSpaceOnUse" color-interpolation-filters="sRGB">
<feFlood flood-opacity="0" result="BackgroundImageFix"/>
<feColorMatrix in="SourceAlpha" type="matrix" values="0 0 0 0 0 0 0 0 0 0 0 0 0 0 0 0 0 0 127 0" result="hardAlpha"/>
<feOffset dy="4"/>
<feGaussianBlur stdDeviation="2"/>
<feComposite in2="hardAlpha" operator="out"/>
<feColorMatrix type="matrix" values="0 0 0 0 0 0 0 0 0 0 0 0 0 0 0 0 0 0 0.25 0"/>
<feBlend mode="normal" in2="BackgroundImageFix" result="effect1_dropShadow_1_45"/>
<feBlend mode="normal" in="SourceGraphic" in2="effect1_dropShadow_1_45" result="shape"/>
</filter>
</defs>
</svg>
